# xmcd CD database file
#
# Track frame offsets:
#	150
#	29836
#	44820
#	69794
#	97247
#	117841
#	142100
#	171173
#	197757
#	220006
#
# Disc length: 3110 seconds
#
# Revision: 1
# Processed by: cddbd v1.4PL0 Copyright (c) Steve Scherf et al.
# Submitted via: CDex 1.40Release
#
DISCID=9c0c240a
DTITLE=Catishun Otavalomanta - Music of the Andes
DYEAR=2002
DGENRE=Native American
TTITLE0=The Widow's Alley
TTITLE1=Wara
TTITLE2=Ukumampi Munataxa
TTITLE3=The Inka Trail
TTITLE4=Valley of the Moon
TTITLE5=Memories of Sanillani
TTITLE6=Romeo and Juliet
TTITLE7=Condor Pasa
TTITLE8=Don't Ever Come Back
TTITLE9=Door of the Sun
EXTD=YEAR: 2002 ID3G: 64
EXTT0=
EXTT1=
EXTT2=
EXTT3=
EXTT4=
EXTT5=
EXTT6=
EXTT7=
EXTT8=
EXTT9=
PLAYORDER=
